<svg version="1.0" xmlns="http://www.w3.org/2000/svg" width="682.667" height="682.667" viewBox="0 0 512 512"><g fill="#f25f3a"><path d="M278.8 17.6c-42.4 6.6-78.4 38-90.2 78.7-3.7 12.8-5 23.5-4.3 37.1.9 20.4 6.7 38.4 17.5 55.2 8.6 13.2 12.9 15.8 18.6 11.3 4-3.1 3.6-7.9-1.3-14.3-23.3-31-25.3-74.3-4.9-107.7 5.4-8.9 18.9-23.2 26.9-28.6 8.3-5.7 20.9-11.4 30.7-14 13.4-3.6 33.4-3.8 46.6-.5 35 8.8 62 35.9 70.8 70.8 3.3 13.2 3.1 33.2-.5 46.6-2.6 9.8-8.3 22.4-13.9 30.7-5.3 7.8-19.8 21.4-28.7 26.9C331.5 218.7 313 224 296 224c-15.8 0-34.9-5.1-47.5-12.7-8.6-5.2-14.2-4.7-16.6 1.4-1.4 3.9.7 7.6 6.4 11.1 56.1 33.8 128.7 12.5 157.7-46.3 18.5-37.5 14.7-82.2-9.8-115.1-25.6-34.3-66.2-51.3-107.4-44.8z"/><path d="M282.5 65.5c-18.7 4.1-34.8 16.6-43.5 33.9-12.4 24.7-7.8 53.7 11.5 73 12.1 12.2 25.6 18.4 41.9 19.3 29.2 1.6 56-17 64.9-45.2 3.1-9.9 3.1-27.1 0-37-10-31.6-43-51-74.8-44zm25 16c17.2 4.5 30.5 17.9 35 35.2 6.5 24.9-9.4 51.1-35 57.8-25 6.5-51.3-9.4-58-35-8.9-34.2 23.8-66.9 58-58z"/><path d="M288 105.3c-4.9 1.6-13.3 10.2-14.8 15.3-2.8 9.4-.8 16.9 6.3 23.9 5.1 5.2 10.2 7.5 16.5 7.5 12.4 0 24-11.6 24-24 0-6.3-2.3-11.4-7.5-16.5-7-7.1-15.2-9.1-24.5-6.2zm13.5 17.2c1.6 1.5 2.5 3.6 2.5 5.5s-.9 4-2.5 5.5c-1.5 1.6-3.6 2.5-5.5 2.5s-4-.9-5.5-2.5c-1.6-1.5-2.5-3.6-2.5-5.5s.9-4 2.5-5.5c1.5-1.6 3.6-2.5 5.5-2.5s4 .9 5.5 2.5zm123.8 26.7c-1.2.6-2.7 2.4-3.4 4-1.1 2.7-.7 4.2 4.4 17.1 11.4 28.9 19.6 54.4 26.2 82.2 3.8 15.9 5.9 19.5 10.8 19.5 3 0 6.6-2.6 7.8-5.6 2.9-7.7-29.9-110.7-37.2-116.7-2.4-1.9-5.3-2.1-8.6-.5zm-78.9 96.6c-1.2.2-3 1.2-4 2.4-1.7 1.8-2 4.6-2.6 25.3-.6 22.6-1.3 29.9-2.6 29.3-.4-.2-2.9-1.5-5.7-2.9-6.8-3.6-20.5-8.3-29-10-10.3-2-33.9-1.8-44.5.5-14.4 3.1-33.7 10.8-42.2 16.7-1.4 1.1-3 1.9-3.6 1.9-.5 0-2.6-2.7-4.6-5.9-4.6-7.6-16.3-20-24.6-26.3-8.9-6.8-24.5-14.3-36.5-17.5-9.1-2.4-11.6-2.7-28-2.7-16.2 0-19 .3-27.5 2.6-23.7 6.4-43 17.1-60.7 33.6-7.3 6.7-8.2 10.4-3.8 14.7 4.1 4.2 7.4 3.4 15.2-3.6 23.8-21.3 49.2-31.8 76.8-31.9 43.2 0 77.7 26.8 88.5 69.1 2.1 8.2 4.4 10.9 9.2 10.9 3.6 0 7.8-4 7.8-7.3 0-1.4-1.1-6.4-2.6-11.3l-2.5-8.8 2.3-1.8c4.2-3.3 19.2-10.5 27.3-13.2 36.7-12.2 76.3-3.1 100.8 23.4 6.7 7.2 13.8 17.8 17.7 26.4 3.1 6.8 5.1 8.6 9.5 8.6 3.3 0 7.5-4.2 7.5-7.5 0-3.4-7.6-18.3-13.9-27.3-2.9-3.9-7.9-10-11.1-13.3l-6-6.1 1-7.7c1.7-11.9 2.5-54.3 1.2-56.8-1.3-2.3-5.6-4.1-8.8-3.5z"/><path d="M464.5 290.5c-1.4 1.3-2.5 3.2-2.5 4.3 0 1 1.1 9.4 2.5 18.8 6.1 42.2 9.5 102.9 6.3 113.6-.6 2.2-3.1 6.2-5.5 8.8-3.9 4.3-5.9 5.5-17.1 9.9C358.8 481 255 489.2 157 468.8c-8-1.6-16.8-3.2-19.6-3.5-4.6-.5-5.3-.3-7.2 2.2-4.8 6.1-1.7 11.3 8.3 13.9 17.7 4.5 48.4 9.5 75.5 12.3 20.6 2.1 76.1 2.4 95.5.5 54.4-5.4 103-16.6 145.5-33.7 17.3-6.9 23.6-12.2 29.4-24.5 2.8-6 3.1-7.5 3.4-19.7.5-15.1-1.2-49.7-3.4-71.8-2.2-22.3-6.3-49.5-7.9-52.6-2.4-4.6-8.2-5.3-12-1.4z"/><path d="M186.6 429.3c-3.4 3.4-3.3 7.1.2 10.6 2.5 2.5 3.8 2.9 17.2 4.4 41.3 4.8 80.4 4.9 119 .2 10.3-1.2 11.7-1.7 13.7-4 2.9-3.3 2.9-6.5.2-9.9-2.5-3.2-4-3.2-23.9-.9-20.5 2.4-76.6 2.3-97-.1-27.8-3.2-26.5-3.2-29.4-.3z"/></g></svg>