<svg version="1.0" xmlns="http://www.w3.org/2000/svg" width="682.667" height="682.667" viewBox="0 0 512 512"><g fill="#f25f3a"><path d="M130.5 30.6c-21.6 3.3-38.4 8.2-41.4 12-1.9 2.5-2.1 4-2.1 19.5V79H69.5c-11.4 0-18.3.4-20 1.2-3.3 1.5-5.5 5.6-5.5 10.1v3.4l-10.8.5c-8.7.3-11.8.9-15.7 2.8-6.2 3-12.1 8.9-14.9 14.9l-2.1 4.6v320l2.3 4.6c3.1 6.3 8.6 11.7 15.2 14.8l5.5 2.6 100.2.3 100.1.2 2.2 4.5c2.9 5.9 8.8 11.8 15.2 15.2 4.7 2.5 6.3 2.8 14.8 2.8s10.1-.3 14.8-2.8c6.4-3.4 12.3-9.3 15.2-15.3l2.2-4.4h25.3c14 0 26.5-.4 27.8-.9 7.1-2.7 9-10.9 3.8-16.2l-2.9-2.9h-66l-3 2.5c-2.3 1.9-3.2 3.7-3.7 7.5-1.1 7.8-6.5 13-13.5 13s-12.4-5.2-13.5-13c-.5-3.8-1.4-5.6-3.7-7.5l-3-2.5H132.7c-96.3 0-103.4-.1-106.7-1.8-1.9-.9-4-2.8-4.7-4.2-1-2-1.3-35.5-1.3-157.2V121l2.9-3.2c2.8-3.2 3.2-3.3 12-3.6l9.1-.4v148.7c0 160.2-.2 152.7 4.9 155.5 2.7 1.4 411.5 1.4 414.2 0 5.1-2.8 4.9 4.7 4.9-155.5V113.8l9.1.4c8.8.3 9.2.4 12 3.6l2.9 3.2v154.8c0 121.7-.3 155.2-1.3 157.2-.7 1.4-2.8 3.3-4.7 4.2-3.1 1.6-6.9 1.8-32.8 1.8h-29.3l-2.4 2.4c-4.9 4.9-4.2 11.5 1.6 15.4 3.4 2.3 3.4 2.3 34.4 2l31-.3 5.5-2.6c6.6-3.1 12.1-8.5 15.2-14.8l2.3-4.6v-320l-2.1-4.6c-2.8-6-8.7-11.9-14.9-14.8-4-1.9-7.2-2.5-15.7-2.9l-10.8-.5v-3.4c0-4.3-2.5-8.8-5.7-10.2-1.4-.7-9.4-1.1-19.8-1.1H425V62.1c0-21 .1-20.8-13.8-25.1-17.7-5.4-25.8-6.5-47.2-6.4-16.4 0-21.2.4-30 2.3-26.7 5.7-49.9 17.1-70.3 34.6l-7.8 6.6-6.2-5.4C229.2 50.8 205 38.6 178.5 33c-7.4-1.6-14.5-2.2-27.5-2.5-9.6-.2-18.8-.1-20.5.1zm44 21.9c20.6 4.6 40.8 14.2 56.7 27 5.7 4.6 11.3 9.4 12.6 10.7l2.2 2.4-.2 146.1-.3 146.1-10.5-7c-35.1-23.3-75.7-32.1-116-25.2-4.7.8-9.3 1.7-10.2 2-1.7.5-1.8-7-1.8-149V56.2l3.7-1.3c2.1-.7 8.3-2 13.8-3 12.2-2.3 38.7-1.9 50 .6zm210.5-1c5.2.9 11.9 2.2 14.8 3.1l5.2 1.5v149.5c0 138-.1 149.6-1.6 149-2.9-1.1-19.6-3.5-29.4-4.2-32.9-2.3-73.3 9.8-100.9 30.1-3.3 2.5-6.3 4.5-6.6 4.5-.3 0-.5-65.9-.5-146.4V92.1l7.9-6.9c21.6-19.1 47.3-31 74.6-34.5 7.7-1 27.9-.5 36.5.8zM87 235.6v136.6l2.9 2.9c3.7 3.7 5.6 3.7 20.1 0 26.7-6.7 52.3-6.3 77.2 1.5 10.1 3.1 30.3 13 37.8 18.4l5.5 4H64V99h23v136.6zM448 249v150H281.5l5-3.6c7.6-5.4 20-11.9 30.3-15.9 27.1-10.4 55.5-11.9 85.2-4.4 14.5 3.7 16.4 3.7 20.1 0l2.9-2.9V99h23v150z"/><path d="M131.2 91.5c-3.7 3.1-4.8 7.5-3.2 11.6 2 4.8 5.4 5.9 18.3 5.9 18.9 0 34.4 3.9 50.6 12.6 16.1 8.8 15.3 8.5 19.3 7.4 4.4-1.3 6.8-4.7 6.8-9.9 0-3.4-.6-4.4-4-7.3-5.6-4.9-22-13.2-33-16.8-13.1-4.3-24.2-6-39.1-6-12.2 0-12.9.1-15.7 2.5zm2.8 46.7c-4.8 1.8-7.6 6.8-6.4 11.6 1.6 6.3 4 7.2 20.4 7.6 21.6.6 37.1 5.2 56.3 16.8 5.7 3.4 7.3 4 10.5 3.5 4.8-.8 8.2-4.6 8.2-9.3 0-5-1.3-6.9-7.5-10.9-12.6-8-27.5-14.2-42.5-17.6-10.9-2.5-34.1-3.5-39-1.7zm-3.6 51.2c-4.4 4.4-4.5 8.3-.5 12.8l2.9 3.3 16.4.6c22.5.9 35.2 4.6 53.5 15.6 8.8 5.3 13.6 5.7 17.7 1.7 2-2 2.6-3.6 2.6-6.8 0-2.2-.6-4.8-1.3-5.7-1.9-2.4-9.5-7.3-18.2-11.6-18.7-9.4-35.2-13.3-56-13.3h-13.7l-3.4 3.4zm3.6 45.7c-3.8 1.6-5.9 3.9-6.6 7.4-.7 3.7 1.5 8.9 4.4 10.3.9.5 8.5 1.2 16.7 1.5 21.6.8 34.9 4.6 53.4 15.4 8.1 4.8 9.9 5.4 13 4.9 4.9-.7 8.1-4.6 8.1-9.8 0-3.4-.6-4.6-3.5-7.4-4.6-4.3-28-15.8-37.5-18.4-16.1-4.4-41.5-6.5-48-3.9zm5 47.9c-7.1.9-8.2 1.4-10.4 5.1-2.4 4.1-1.4 9 2.5 12.3 2.8 2.4 3.5 2.5 15.7 2.5 20.4 0 37.4 4.6 54.9 15.2 9.7 5.8 13.5 6.3 18.2 2.3 2.6-2.1 3.1-3.3 3.1-6.7 0-2.4-.8-5.1-1.8-6.4-2-2.6-13.9-9.6-23.7-14-17.4-7.9-42.8-12.4-58.5-10.3zM341.6 90.6c-19.2 3.5-49 17.1-52.7 24.1-3 5.6-.2 12.6 5.8 14.3 3.4.9 4.4.7 9.3-2 25.3-13.9 35.4-17 57.4-17.7 15.6-.6 15.9-.6 19-3.3 2.5-2.3 3.1-3.6 3.1-7 0-3.5-.6-4.7-3.3-7.1L377 89l-13.8.1c-7.5 0-17.3.7-21.6 1.5zm10.4 47c-19.3 2.8-31.4 6.5-46.4 14.2-14.2 7.3-17.6 10.5-17.6 16.1 0 3.4.6 4.9 2.9 7.2 4.2 4.2 7.7 3.8 17.4-1.9 18.5-10.9 33.3-15.2 54.4-15.7 7.9-.2 15.2-.9 16.3-1.5 2.2-1.2 5-6 5-8.7 0-3.6-3.8-8.1-7.7-9.2-3.5-1-18.6-1.3-24.3-.5zM339.5 188c-15.7 3.3-32.4 10.2-45.1 18.7-7.7 5.1-9 11.4-3.7 16.8 4 3.9 8.9 3.4 17.7-1.9 17.5-10.7 31-14.6 53.3-15.5 16-.6 16.3-.6 19-3.4 4.1-4 3.9-9.9-.5-13.8L377 186l-14.3.1c-9.9 0-16.9.6-23.2 1.9zm6 47.5c-19.7 3.1-44.9 13.3-54.2 22.1-4.2 4-4.6 9.8-.9 14.1 3.8 4.4 9.2 3.8 18.6-2 16.5-10.1 32.2-14.6 53.5-15.4 16.9-.6 18.8-1.2 20.6-7.1 1.5-5.1-.8-9.7-5.6-11.8-4.3-1.7-20.7-1.7-32 .1zm11 47.1c-18.1 1.6-33 5.7-47.5 12.8-14.1 7-19.8 11-20.8 14.8-1.1 4.5-.4 7.3 2.5 10.3 3.9 3.9 8.8 3.4 17-1.6 18.2-11.2 35.3-16 56.5-16 12.1 0 12.9-.1 15.7-2.5 5.3-4.4 4.9-11.4-.9-15.5-2.6-1.8-14.4-3-22.5-2.3zm23 156.3c-3.7 1.6-6 5.1-6 9.3 0 3.3.6 4.5 3.3 6.9 4.4 4 9.3 4 13.3 0 7.6-7.6-.7-20.2-10.6-16.2z"/></g></svg>