<svg version="1.0" xmlns="http://www.w3.org/2000/svg" width="682.667" height="682.667" viewBox="0 0 512 512"><g fill="#f25f3a"><path d="M122.8 5.5c-12.4 3-26 11.8-33.9 21.7-4.6 5.8-10.5 17.4-11.5 22.4-.5 2.8-1.1 3.3-4.6 3.8-8.2 1.3-16.2 7.5-19.2 14.8-.9 2.1-1.6 6.6-1.6 10.1 0 5.3.5 7.1 3.2 11.7 3.9 6.4 10.3 10.8 17.2 11.8 4.6.7 4.8.8 7 6.4 7.1 17.3 20.9 30.9 37.8 36.8 8.8 3.1 26.7 3.9 35.8 1.5 20.3-5.3 37-20.4 43.6-39.3 1.8-4.9 2-5.2 5.4-5.2 8-.1 18.3-8.4 20.8-16.8 4.4-14.6-4.8-29.4-19.7-31.8-3.8-.6-4.2-1-5.2-4.8-1.6-5.9-6.5-15.3-11.3-21.4-7.5-9.8-20.9-18.3-34.1-21.7-7.3-1.8-21.9-1.8-29.7 0zm27.3 15.1c15.9 4.7 28.8 17.2 33.4 32.3l.7 2.4-11.8-.6c-18-.8-32.7-6.2-44.3-16.4-6.7-5.9-10.3-6.2-14.1-1.3-5.7 7.5-10.4 12-14.6 14-7.4 3.6-8.1 2.6-3.9-5.7 5.9-11.8 18.9-22.3 31.2-25.2 6.2-1.5 17.5-1.2 23.4.5zM126.4 56c7.1 4.8 16.5 8.8 27.2 11.6 8.3 2.2 12.1 2.6 23.9 2.6 8.5 0 15.7-.5 18.2-1.2 3.4-1 4.8-1 7.3 0 6.4 2.7 7.7 11.7 2.2 16-2.3 1.9-3.5 2.1-9.2 1.5-5.9-.6-6.7-.4-8.5 1.5-1 1.1-2.7 5.3-3.7 9.2-8.1 32-45.2 46.1-72.7 27.7-10-6.7-16.4-16.1-19.7-28.9-2.4-9.5-3.4-10.4-11.5-9.6-6.2.7-6.8.5-9.8-1.9-2.5-2.2-3.1-3.4-3.1-6.5 0-5.4 3.5-9.4 8.1-9.2 13 .5 19.2 0 25.2-1.8 6.1-1.9 16.3-8.3 19.6-12.3 1.7-2.1 1.2-2.2 6.5 1.3z"/><path d="M127.2 74.3c-1.9 2-2.2 3.5-2.2 10.1 0 6.8.3 8 2.5 10.1 1.3 1.4 3.6 2.5 5 2.5s3.7-1.1 5-2.5c2.2-2.1 2.5-3.3 2.5-9.8 0-6-.4-7.9-2.1-10.1-2.7-3.4-7.7-3.6-10.7-.3zm31.3.2c-2.2 2.1-2.5 3.3-2.5 10s.3 7.9 2.5 10c3 3 6.4 3.2 9.9.4 2.4-1.9 2.6-2.6 2.6-10.3 0-7.3-.3-8.5-2.3-10.4-3.1-2.9-7.2-2.8-10.2.3zM343 36c-1.9 1.9-2 3.3-2 46.5V127h-91.8l-6.4 6.7c-11 11.4-24.3 26.3-25.2 28.3-.5 1-.6 3-.2 4.3.3 1.4 7.3 9.9 15.6 19 11.6 12.7 15.8 16.6 18.2 17.1 1.7.3 22.6.6 46.4.6H341v289.9l-24.6.3c-24.5.3-24.6.3-26.5 2.7-2.5 3-2.4 6.2.2 9.5l2 2.6h135.6l2.1-2.3c2.9-3.1 2.8-7.2-.3-10.2l-2.4-2.5H380v-40.8c0-30.7-.3-41.3-1.3-43.2-1.5-3-5.4-4.5-9.1-3.6-5.3 1.3-5.6 3.6-5.6 47.6v40h-8V49h8l.2 168 .3 167.9 2.2 2.2c2.9 2.9 7.7 2.9 10.6 0l2.2-2.2.3-60.9.2-61h99.6l6.5-6.8c15.2-15.6 25.9-28.2 25.9-30.4 0-1.3-.8-3.5-1.8-4.9-3.8-5.6-29.5-32.7-31.5-33.3-1.2-.3-23.9-.6-50.4-.6H380v-45h99.6l6.5-6.8c15.2-15.6 25.9-28.2 25.9-30.4 0-1.3-.8-3.5-1.8-4.9-3.8-5.6-29.5-32.7-31.5-33.3-1.2-.3-23.9-.6-50.4-.6h-48.1l-.4-13.9c-.4-18.9.5-18.1-19.5-18.1-14 0-15.5.2-17.3 2zm141 57l10.2 11-3.8 4.3c-2.1 2.3-6.8 7.5-10.4 11.4l-6.7 7.3H380V82h93.7L484 93zm-143 71.5V187h-85.7L245 176l-10.2-11 3.3-3.8c1.8-2 6.4-7.2 10.3-11.4l7.1-7.8H341v22.5zM484 214l10.2 11-3.8 4.3c-2.1 2.3-6.8 7.5-10.4 11.4l-6.7 7.3H380v-45h93.7l10.3 11z"/><path d="M35.6 129.1l-2.6 2v42.4l-5.1 2.8C7 188.1-3.5 208.1 1.4 226.6c3.1 11.5 11.9 23.1 24.4 31.9l7.1 5 .1 120.1v120.1l2.3 2.1c3.3 3.1 8 2.9 10.6-.4 2.1-2.7 2.1-2.8 2.1-120.5V267h4c3 0 4.7-.7 6.5-2.5 5.3-5.2 1.6-12.5-6.3-12.5H48v-68.8l6.8-1.7c7.5-1.9 25.2-3.3 25.2-1.9 0 .5-.9 3.7-2 7.2-2.1 6.8-1.6 10.3 1.9 12.1 5.6 3 10.1.2 12.6-7.9 1-3 3.5-10.1 5.7-15.8l4-10.2h6.1l6.2.1 7.8 11.4 7.7 11.4V268h-9.7c-9.3.1-24.2 1.1-36.2 2.6l-5.4.7.7-11.4c.3-6.3 1.3-15.7 2.2-20.9 2.8-17.7 2.9-21.2.5-23.4-3.1-2.8-7.9-2.5-10.6.6-1.6 1.9-2.6 5.3-3.8 12.9-3.7 23.5-4.1 30.6-4 62.3.3 67.4 5 140.9 11.9 184.3 1.3 8.6 2.4 16 2.4 16.5 0 .4-1.8.8-4 .8-7.7 0-12.3 4.6-10.1 10.3 1.7 4.4 3.6 4.8 25.7 4.5l20.7-.3 1.7-2.5c1.5-2 2.1-7.1 3.5-26.4 2.7-40.2 7.9-81.8 15-122.1 4.3-24.3 5.6-29.7 7.2-30.3 1.9-.6 2.7 2.4 6.7 24.3 7.5 41.1 13.9 92.8 16.6 134.5.9 13.9 1.5 18 2.9 20l1.8 2.5 21 .3c19.3.2 21.2.1 23.3-1.6 3.4-2.7 3.2-7.8-.4-10.9-2-1.7-3.9-2.3-7.3-2.3h-4.6l.7-4.3c8.7-54 13.5-124.2 13.8-197.9 0-24.5-.3-35.5-1.6-45.3-1.8-14.5-5.6-34.4-8.5-45-1.1-3.8-1.8-7.1-1.7-7.3.5-.4 6.8 7.6 11.3 14.3 9 13.3 17.1 33.1 21 51.5 1.4 6.4 1.8 12.9 1.8 26.5 0 18.3-.6 23.1-4.7 37.2-1.7 6.1-1.9 7.7-.8 10.2 1.6 4 6.1 5.6 10.1 3.6 3.2-1.7 5.5-7.9 8.6-23.3 2.5-12.5 2.5-42-.1-55.7-6.8-36.8-28.1-73.2-50.9-87.3-5.2-3.2-6.2-4.3-9.1-10.8-1.9-4-4.3-7.7-5.4-8.3-2.6-1.4-25.7-1.5-28.2-.1-1 .5-4.9 5.5-8.6 11-3.7 5.5-7 10-7.4 10-.3 0-3.7-4.5-7.5-10.1-3.8-5.5-7.7-10.4-8.6-11-2.4-1.2-25.6-1.2-28 .1-1 .6-3.2 3.7-4.9 6.9l-2.9 5.8-13.8.6c-7.6.3-16.2 1.2-19 2l-5.3 1.4v-17.9c0-17.7 0-17.9-2.5-20.3-3-3-6.4-3.2-9.9-.4zM178 175.7c10.3 26.7 19 67.8 19 90.1v5.4l-4.7-.6c-10.3-1.3-28.2-2.6-37-2.6H146v-80.2l7.8-11.4 7.7-11.3 6.2-.1h6.2l4.1 10.7zM33 218.2v27.2l-5.9-5.8c-15.2-15.1-15.9-28-2-41.9 3.7-3.7 7-6.7 7.3-6.7.3 0 .6 12.2.6 27.2zm153.4 66.9l10.9 1.3-.6 31.5c-1.3 61.7-5.7 121.6-11.8 159.1-2.6 16-2.6 16-5.4 16-2.8 0-2.5 2.2-5.5-34-3.5-42.1-10.3-90.6-18.1-128.8-3.8-19-3.5-18.7-17.9-18.7-9.7 0-11.2.2-13 2-5.2 5.3-19 92.6-23.5 149.5-2.6 31.7-2.3 30-5 30s-2.9-.4-4.9-12.5C84.8 439.3 79 358.6 79 304.2v-18l13.3-1.2c7.2-.6 14.1-1.3 15.2-1.5 5.1-.9 69.1.4 78.9 1.6z"/></g></svg>