<svg version="1.0" xmlns="http://www.w3.org/2000/svg" width="682.667" height="682.667" viewBox="0 0 512 512"><g fill="#f25f3a"><path d="M82.7 5.1c-8.5 2-17.2 9.1-21.5 17.4-2.2 4.2-2.7 6.7-3 15.1l-.4 10.2-10.2.4c-14.3.6-20.8 4.4-25.5 14.8-4.1 9-2.2 18 5.4 25.5 6 6.1 10.1 7.5 21.9 7.5H58v44h-8.6c-11.7 0-15.8 1.4-22.1 7.5-5.9 5.8-7.8 11-7 19.1.6 6.3 2.6 10.2 7.3 14.8 4.9 4.8 10.9 6.6 21.6 6.6H58v44h-8.8c-10.8 0-16.5 1.8-21.6 6.7-5.8 5.6-7.1 8.8-7.1 17.3s1.3 11.7 7.1 17.3c5.1 4.9 10.8 6.7 21.6 6.7H58v44h-8.8c-10.7 0-16.7 1.8-21.6 6.6-4.7 4.6-6.7 8.5-7.3 14.8-.8 8.1 1.1 13.3 7 19.1 6.3 6.1 10.4 7.5 22.1 7.5H58v44h-8.8c-11.8 0-17 1.8-22.5 8-6.8 7.6-8.5 16.5-4.6 25 4.7 10.4 11.2 14.2 25.5 14.8l10.2.4.4 10.2c.3 8.4.8 10.9 3 15.1 3.2 6.1 10.3 12.9 16.6 15.8l4.7 2.2h382l6.3-2.9c8.9-4.1 16.5-12.5 19.2-21.2 2-6.6 2-8.2 2-227.4 0-219.2 0-220.8-2-227.4-2.7-8.7-10.3-17.1-19.2-21.2l-6.3-2.9-189-.2c-108.7 0-190.6.3-192.8.8zM129 256v238h-20.4c-12.9 0-21.5-.4-23.7-1.2-9.1-3.1-12.9-9.4-12.9-21v-7.6l9.8-.4c8.5-.3 10.4-.7 14.5-3.1 6-3.6 10.3-9.3 11.8-16.1 2.3-10.5-3.4-21.5-13.6-26.2-4-1.9-6.7-2.4-13.7-2.4H72v-43.8l9.9-.4c8.8-.3 10.4-.7 14.7-3.4 2.7-1.6 6.2-4.9 7.9-7.3 2.8-4 3-4.9 3-13.1s-.2-9.1-3-13.1c-1.7-2.4-5.2-5.7-7.9-7.3-4.3-2.7-5.9-3.1-14.7-3.4l-9.9-.4v-43.6l9.9-.4c8.8-.3 10.4-.7 14.7-3.4 2.7-1.6 6.2-4.9 7.9-7.3 2.8-4 3-4.9 3-13.1s-.2-9.1-3-13.1c-1.7-2.4-5.2-5.7-7.9-7.3-4.3-2.7-5.9-3.1-14.7-3.4l-9.9-.4v-43.6l9.9-.4c8.8-.3 10.4-.7 14.7-3.4 2.7-1.6 6.2-4.9 7.9-7.3 2.8-4 3-4.9 3-13.1s-.2-9.1-3-13.1c-1.7-2.4-5.2-5.7-7.9-7.3-4.3-2.7-5.9-3.1-14.7-3.4l-9.9-.4V96h8.8c7 0 9.7-.5 13.7-2.4 10.2-4.7 15.9-15.7 13.6-26.2-1.5-6.8-5.8-12.5-11.8-16.1-4.1-2.4-6-2.8-14.5-3.1l-9.8-.4v-7.6c0-11.6 3.8-17.9 12.5-21 1.7-.6 11.9-1.1 23.8-1.1L129 18v238zM467.5 21.5c3.6 2.2 5.7 4.5 7.7 8.4l2.8 5.3v441.6l-2.8 5.3c-2 3.9-4.1 6.2-7.7 8.4l-4.8 3-159.9.3-159.8.2V18l159.8.2 159.9.3 4.8 3zM88.4 63c3.4 1.2 6 5.5 6 9.8 0 2.6-.8 4.1-3.2 6.3L88 82H65c-24.8 0-27.1-.4-29.6-5.1-2.3-4.5-1.7-7.8 2-11.5l3.4-3.4h22.5c12.4 0 23.7.4 25.1 1zm2.5 93.4c4.6 4.2 4.3 11.7-.6 15.6-2.4 1.9-4.1 2-25.4 2-24.7 0-27-.4-29.5-5.1-2.3-4.6-1.7-7.8 2.1-11.6l3.4-3.4 23.9.3c22 .3 24.2.5 26.1 2.2zM89 247.3c1.4.7 3.2 2.7 4.2 4.5 1.9 3.9 1.1 8.4-2.2 11.7-1.9 1.9-3.5 2-26.1 2.3l-24 .3-3.4-3.4c-4.7-4.7-4.7-8.7-.1-13.3l3.4-3.4h22.9c16.2 0 23.5.4 25.3 1.3zm.9 92.3c1.3.9 3 3.2 3.8 5.1 1.2 3.1 1.2 3.8-.4 7.1-2.9 5.9-4.2 6.2-29.7 6.2H40.8l-3.4-3.4c-3.7-3.7-4.3-7.3-2-11.5 2.6-4.7 4.5-5 29.1-5.1 19.7 0 23.4.2 25.4 1.6zm1.3 93.3c2.4 2.2 3.2 3.7 3.2 6.3 0 4.3-2.6 8.6-6 9.8-1.4.6-12.7 1-25.1 1H40.8l-3.4-3.4c-3.7-3.7-4.3-7.3-2-11.5 2.6-4.7 4.5-5 29.3-5.1H88l3.2 2.9z"/><path d="M217.3 111.9c-4.7 2.2-7 5.8-7.9 12.5l-.6 4.4-10.2.4c-8.7.3-10.6.7-13.5 2.7-6 4.3-6.1 4.9-6.1 49.2 0 44.5.1 44.9 6.5 48.9 2.7 1.7 5 2 13.3 2h10l.7 5.7c.6 4.8 1.3 6.3 4.4 9.4 4.5 4.6 9 5.3 28.8 4.7 12.2-.3 14.2-.6 17.4-2.6 6-3.6 6.9-7.4 6.9-27.7V204h87.9l.3 20.1.3 20.1 3.6 3.3c4.6 4.1 9.4 4.9 28.6 4.3 11.5-.3 14.4-.7 17.2-2.3 4.3-2.5 7.1-7.8 7.1-13.2V232h10.3c8.4 0 10.8-.4 13.4-2 6.4-3.9 6.4-3.5 6.1-50.4l-.3-42.5-2.9-3c-3.8-3.9-8-5.1-18.2-5.1h-8.1l-.5-5.1c-.6-5.9-3.1-9.7-7.9-12.1-2.8-1.5-6.2-1.8-20.3-1.8-14.9 0-17.5.2-21.1 2-7 3.4-7.5 5.1-7.5 26.9V158h-87.9l-.3-19.3c-.3-18.4-.4-19.3-2.7-22.6-3.9-5.4-6.9-6.1-25.8-6.1-14.3 0-17.4.3-21 1.9zm35.5 68.8l-.3 56.8h-29l-.3-55.5c-.1-30.5 0-56.1.3-56.8.3-.9 4.3-1.2 15-1.2H253l-.2 56.7zm145.2.3v57h-29V124h29v57zm-189-.5V218h-16v-75h16v37.5zm219 0V218h-16v-75h16v37.5zm-73.5.5v8.5l-43.7.3-43.8.2v-18l43.8.2 43.7.3v8.5zM218 312c-2.9 2.9-2.6 7.4.6 9.9 2.7 2.1 3.1 2.1 93.6 2.1h90.9l2.4-2.5c3-3 3.1-5.4.4-8.9l-2-2.6h-92c-90.6 0-91.9 0-93.9 2zm.6 36.1c-3.3 2.6-3.4 6.8-.3 9.7l2.3 2.2h183.3l2-2.6c2.7-3.5 2.6-5.9-.4-8.9l-2.4-2.5h-90.9c-90.5 0-90.9 0-93.6 2.1zm1.7 34.9c-4.4 1.8-5.6 7.7-2.3 11 2 2 3.3 2 93.9 2 82.2 0 92.1-.2 93.5-1.6 3.8-3.7 2.7-9.6-2-11.4-3.2-1.3-180.1-1.2-183.1 0zm-2.3 38c-2.7 2.7-2.5 6.6.5 9.6l2.4 2.4 91.7-.2 91.6-.3 1.9-2.4c2.4-3 2.4-5.2-.2-8.5l-2-2.6h-92c-90.6 0-91.9 0-93.9 2z"/></g></svg>