<svg version="1.0" xmlns="http://www.w3.org/2000/svg" width="682.667" height="682.667" viewBox="0 0 512 512"><g fill="#f25f3a"><path d="M246.9 5c-4.8 2.5-9.6 8.1-10.8 12.7-.6 2.1-1.1 6.6-1.1 10V34h-9.3c-11.2 0-16.9 2.3-19.9 8l-1.8 3.5-60.3.5-60.2.5-5.7 2.8c-3.2 1.6-7.1 4.5-8.8 6.5-6.4 7.7-6-7-5.8 224.2l.3 210.5 2.2 4.1c2.7 5 7.5 9.7 12.2 12.1 3.4 1.7 12.4 1.8 176.6 2.1 192 .2 178.6.7 185.9-6.4 2-1.9 4.6-5.4 5.9-7.7l2.2-4.2.3-210.5c.2-231.2.6-216.5-5.8-224.2-1.7-2-5.6-4.9-8.8-6.5l-5.7-2.8-60.2-.5-60.3-.5-1.8-3.5c-3.1-5.7-8.8-8-19.9-8H277v-6.3c0-8.2-1.4-13-5.2-17.3-6.4-7.2-17-9.6-24.9-5.4zm12.7 12.8c2.6 1.7 3.4 5.6 3.4 15.6 0 14.7-.1 14.6 17.5 14.6H294v35h-76V48h13.5c17.6 0 17.5.1 17.5-14.6 0-13.1 1.4-16.4 7-16.4 1.4 0 3 .4 3.6.8zm-55.8 48.4l.3 5.8h-112l-2 2.6-2.1 2.7v401.8l2.5 2.4 2.4 2.5h326.2l2.4-2.5 2.5-2.4V77.3l-2.1-2.7-2-2.6h-112l.3-5.8.3-5.7h59c64.3 0 61.9-.2 65.5 5.8 2 3.1 2 7 2 211 0 177.3-.2 208.3-1.4 211.2-3 7 11 6.5-177.6 6.5s-174.6.5-177.6-6.5c-2.1-5.2-2.1-417.2 0-421.4 1.9-3.6 3.9-5.2 7.9-6.1 1.7-.5 28.9-.7 60.2-.7l57 .2.3 5.7zm2.3 23c.9 1.9 3.3 4.2 5.9 5.5 4.3 2.3 4.5 2.3 44 2.3s39.7 0 44-2.3c2.6-1.3 5-3.6 5.9-5.5l1.6-3.2H410v384H102V86h102.5l1.6 3.2z"/><path d="M174 122.8c-4.4 2.2-8 7.5-8 11.7v3.3l-8.9.4c-10.1.3-13.3 1.9-16.3 7.9-1.6 3-1.8 7.1-1.8 38.4 0 31.3.2 35.4 1.8 38.4 3 5.9 6.1 7.4 16.2 7.9l9 .4v3.2c0 3.8 3 8.9 6.7 11.3 2.3 1.6 5 1.8 19.3 1.8 15.7 0 16.7-.1 19.8-2.3 5.1-3.7 5.7-5.5 6.2-21.2l.5-14.5h75l.5 14.5c.5 15.7 1.1 17.5 6.2 21.2 3.1 2.2 4.1 2.3 19.8 2.3 14.3 0 17-.2 19.3-1.8 3.7-2.4 6.7-7.5 6.7-11.3v-3.2l9-.4c10.1-.5 13.2-2 16.2-7.9 1.6-3 1.8-7.1 1.8-38.4 0-31.3-.2-35.4-1.8-38.4-3-6-6.2-7.6-16.3-7.9l-8.9-.4v-3.3c0-4.2-3.6-9.5-8-11.7-2.9-1.5-6.2-1.8-18-1.8-16.4 0-19.8 1-23.7 6.9-2.1 3.1-2.3 4.5-2.3 17.2V159h-76v-13.9c0-12.7-.2-14.1-2.3-17.2-3.9-5.9-7.3-6.9-23.7-6.9-11.8 0-15.1.3-18 1.8zm30 61.7V234h-24v-99h24v49.5zm128 0V234h-24v-99h24v49.5zm-166 0V217h-13v-65h13v32.5zm193 0V217h-13v-65h13v32.5zm-65-.5v11h-76v-22h76v11zM163.3 298.2L147 314.4l-6.9-6.7c-7.6-7.4-9.8-8.1-13.6-4.2-4.6 4.5-3 7.9 8.9 19.3 12.4 11.9 10.7 12.5 34.5-11.2 17.3-17.3 19.4-19.7 19.4-22.7 0-2.1-.7-3.8-2.2-5.1-4.8-3.8-6.4-2.8-23.8 14.4zm44.3-12.1c-3.2 2.5-3.5 7-.6 9.9 2 2 3.3 2 88 2h85.9l2.1-2.2c2.7-2.9 2.5-6.4-.5-9.3l-2.4-2.5h-84.9c-84.4 0-84.9 0-87.6 2.1zm0 35c-3.2 2.5-3.5 7-.6 9.9 2 2 3.3 2 87.8 2h85.9l2.1-2.3c2.9-3 2.8-6.2-.3-9.2l-2.4-2.5h-84.9c-84.4 0-84.9 0-87.6 2.1zm-44.3 69.1l-16.2 16.2-7-6.7c-7.6-7.4-9.8-8.1-13.6-4.2-4.2 4.1-3.3 6 7.7 17.1 8.4 8.6 10.7 10.4 13.2 10.4s5.7-2.7 21.4-18.3c10.1-10 19-19.4 19.8-20.9 2.4-4.5-.9-9.8-6-9.8-2.7 0-5.3 2.2-19.3 16.2zM207 377c-2.9 2.9-2.6 7.4.6 9.9 2.7 2.1 3.2 2.1 87.6 2.1h84.9l2.4-2.5c3.1-3 3.2-6.5.2-9.3l-2.3-2.2h-85.7c-84.4 0-85.7 0-87.7 2zm0 35c-2.9 2.9-2.6 7.4.6 9.9 2.7 2.1 3.2 2.1 87.6 2.1h84.9l2.4-2.5c3-2.9 3.2-6.8.5-9.5-2-2-3.3-2-88-2s-86 0-88 2z"/></g></svg>