<svg version="1.0" xmlns="http://www.w3.org/2000/svg" width="682.667" height="682.667" viewBox="0 0 512 512"><g fill="#f25f3a"><path d="M419.5 1.2c-63.3 4.6-122.7 23.7-169.9 54.5-27.1 17.7-59 45.9-83.6 74l-5.5 6.2-39 3.1c-39.5 3.1-44 3.7-50.8 7.2-8.2 4.1-12.9 10.1-39.4 50.2-14.6 22-27.4 41.8-28.6 44C1.1 243.5.5 246.3.5 252c0 6.5.4 8.2 2.9 12.8 3.5 6.2 8.7 10.7 14.8 12.7 2.4.8 17.8 3.5 34.3 6 16.5 2.5 30.7 4.8 31.6 5.1 1.3.4 1.6 2 1.5 9.2-.1 10.7 1.9 17 7.9 24.9 2.3 3.2 24.9 26.3 50.1 51.4 49.2 48.9 50 49.5 62.4 51.9 3 .6 8.1.8 11.2.5 5.4-.7 5.7-.6 6.3 1.7.3 1.2 2.5 15.6 5 31.8 2.5 16.2 5.2 31.4 6 33.8 2 6.1 6.5 11.3 12.7 14.8 4.6 2.5 6.3 2.9 12.8 2.9 5.7 0 8.5-.6 11.6-2.2 2.3-1.2 22.1-14.1 44-28.6 40.2-26.5 46-31.1 50.2-39.4 3.5-6.9 4.2-11.3 7.2-50.8l3-39 6.3-5.5c3.4-3 12.6-11.7 20.5-19.5 51.5-50.4 81-101 97.2-166.6 7.4-30 10.8-56 11.7-90.4.9-35.5-1-45-11.1-56.2-5.9-6.5-14.5-10.9-24.1-12.3-8.3-1.1-40.2-1.1-57 .2zM476.7 32c4.5 3 4.8 4.8 4.7 31.9-.1 36.3-3.7 64.1-12.5 96.6C454 215.8 428.5 258.6 384 303c-27.3 27.4-55.6 48.5-87.8 65.6l-7.3 3.8-74.6-74.6-74.6-74.6 3.8-7.4c16-30.8 38.1-60.5 65.5-87.8 16-16 26.9-25.5 43.4-37.8 42.5-31.4 95-51 155.1-57.6 19.5-2.2 22.3-2.3 46-2.2 16.6.1 21.5.4 23.2 1.6zM131.1 177.2c-15.5 24.7-28 51.4-35.7 76-1.4 4.6-2.2 5.8-3.8 5.8-2.7-.1-58.7-8.7-59.1-9.2-.7-.7 48.5-74.3 50.8-76.1 2-1.5 6.4-2.2 24.3-3.7 12-.9 23.6-1.8 25.6-1.9l3.7-.1-5.8 9.2zm62.3 141.7l65.8 65.9-9.3 3.1c-12.6 4.1-30.3 8.3-36.1 8.5l-4.8.1-46.7-46.8-46.8-46.7.2-5.3c.2-5.8 6-30 9.4-39 1.2-3.1 2.2-5.7 2.3-5.7 0 0 29.7 29.6 66 65.9zm148.7 82.3c-1.1 13.6-2.4 25.6-3.1 26.7-1 2-76.1 52.4-76.8 51.6-.5-.5-9.2-56.4-9.2-59 0-1.7 2-2.7 12.4-6.2 22.3-7.5 47.8-19.8 68.8-33 5.1-3.3 9.4-5.6 9.6-5.3.1.4-.6 11.7-1.7 25.2z"/><path d="M341 87c-36.9 4.8-65 36.8-65 73.9.1 22.2 8.1 40.7 24.3 55.6 8.6 8 23.1 15.5 35.1 18.1 10.4 2.2 27.1 1.5 37.1-1.6 24.6-7.7 43.5-27.3 50.6-52.6 2.8-9.9 3.1-26.4.6-36.6-7.3-30-32.3-52.4-63.1-56.7-8.4-1.2-11.3-1.2-19.6-.1zm17.6 30.1c23.5 4.3 40.6 28.1 36.6 50.9-4.2 23.6-23.9 39.2-47.7 37.8-22.4-1.4-40.1-19.3-41.3-41.5-1.2-23 13-42 35.2-46.8 7.7-1.7 9.9-1.7 17.2-.4zM59 344.1c-1.4.5-14.8 13.2-29.8 28.2C-.4 401.9-1.2 402.9 1 410.9c1.3 4.8 6.6 9.7 11.4 10.6 7.6 1.5 8.5.8 37-27.4 14.8-14.6 27.4-28 28.2-29.8 5.3-12.4-6.3-25-18.6-20.2zm43.5 45.5c-4.3 2.2-98.3 96.2-100.6 100.6-1 2.1-1.9 5.1-1.9 6.8 0 5 3.5 10.7 8 13 4.9 2.5 9 2.5 13.8.1 2-1.1 25.6-23.9 52.4-50.8 52.5-52.6 51-50.9 49.4-59.7-1.7-9.2-12.7-14.4-21.1-10zm44 45.3c-1.6 1-14.8 13.7-29.2 28.2-22.1 22.4-26.2 27-26.8 30.1-2.1 11.1 7.7 20.7 18.2 17.9 5.4-1.5 58.7-54.9 59.8-59.9 1.4-6.9-1.6-13.6-7.5-16.7-4-2.1-10.9-1.9-14.5.4z"/></g></svg>