<svg version="1.0" xmlns="http://www.w3.org/2000/svg" width="682.667" height="682.667" viewBox="0 0 512 512"><g fill="#f25f3a"><path d="M248.4 3.4L245 6.8v25.1c0 27.4.4 29.6 5.5 31.9 4.8 2.2 9.3 1.1 12.7-3.2 1.6-1.9 1.8-4.9 1.8-27.3 0-27.2-.3-29.4-5.1-31.9-4.5-2.3-7.8-1.7-11.5 2zM84.9 5.9C82.6 8.2 82 9.7 82 13.1c0 4.3.2 4.5 20.8 25.1L123.6 59h4.6c5 0 9.2-3.1 10-7.3 1-5.4-1.1-8.2-21.5-28.5C96.6 3.3 96.2 3 92.1 3c-3.4 0-4.9.6-7.2 2.9zm326.5 0c-2.1 1.6-11.9 10.9-21.6 20.8C372.6 44.1 372 44.9 372 48.8c0 2.9.7 4.9 2.6 7.1 2.2 2.6 3.3 3.1 7.2 3.1h4.6l20.8-20.8C427.8 17.6 428 17.4 428 13.1c0-3.4-.6-4.9-2.9-7.2-3.9-3.9-8.5-3.9-13.7 0zM215.3 83.4c-2.2.7-5.5 2.3-7.1 3.5-2.8 1.9-3.5 2-8.2 1-15.7-3.4-33.3 6.5-39 21.9-1.7 4.5-2.1 7.4-1.8 13.9l.3 8.1-3.5 1.1c-5.4 1.6-12.9 6.9-16.2 11.5-5.7 7.8-7.2 12.3-7.2 22.3v9.1l-5.3 2.2c-7.2 3-14.3 9.6-17.8 16.7-2.7 5.2-3 6.8-3 15.3 0 8.3.3 10.1 2.7 14.6l2.6 5.2-4.1 1.8c-6.3 2.8-14.1 11.2-16.8 18.1-3.3 8.6-3.1 18.9.5 26.8 1.5 3.3 4.1 7.5 5.9 9.3l3.1 3.2L84 305.6c-14.4 14.3-16.8 16.4-19 16-11.4-2.5-13.3-2.7-18.8-1.5-9.2 1.9-13 4.4-26.8 18.3-16.1 16.2-17.9 19.3-17.9 32.1 0 13.2 1.9 16.5 19.8 34.2C35.2 418.6 35.8 419 39.9 419c5.7 0 10.1-4.1 10.1-9.5 0-3.4-1.1-4.9-13.9-18-19.9-20.3-19.9-21-1.7-39.3L46.6 340h5.1c4.5 0 5.8.5 10 3.9 2.6 2.1 28.5 27.7 57.6 56.8 39.8 39.9 53 53.8 53.7 56.3 1.8 6.4 0 9.6-12.7 22.2-12.9 12.7-16.1 14.4-22.6 11.7-1.7-.7-9.3-7.3-16.8-14.6-12.5-12.2-14-13.3-17.4-13.3-5.4 0-9.5 4.4-9.5 10.2 0 4.2.3 4.6 14.8 18.9 17.7 17.5 20.7 19.3 33.2 19.3 12.8.1 18-2.8 33.7-18.6 15-15.2 17.8-20.2 17.7-31.8 0-5.2-.7-9.2-2.2-13l-2.2-5.5 19.2-19.2c12.6-12.7 20.4-19.7 22.5-20.4 2.2-.7 11.3-.9 27-.5l23.8.6 20.3 20.3 20.3 20.3-1.7 4.4c-1 2.6-1.7 7.6-1.8 12-.1 11.8 3.1 17.5 19.1 33.1 15.7 15.4 19.2 17.3 31.3 17.4 15.6 0 11 3.7 77.3-62.4 66.9-66.7 64.2-63.4 64.2-78.6 0-8.3-.3-9.5-3.4-15.2-2.4-4.5-7-9.8-16.1-18.6-10.6-10.5-13.6-12.8-18.6-14.7-7.3-2.7-18-2.9-24.3-.4l-4.3 1.7-16.6-16.6-16.5-16.5 3.8-5.2c2-2.8 4.6-7.9 5.7-11.3 5.1-16.1-3.1-34.3-18.7-41.6-2.5-1.2-5.2-2.1-6.1-2.1-1.1 0-1.4-.6-.8-2.2 1.2-3.9.5-15.4-1.2-19.9-3.8-9.7-12.6-18.4-21.4-21l-3.5-1.1v-9.6c0-8.6-.3-10.4-2.8-15.4-3.5-7-11.9-14.9-18.4-17.3l-4.9-1.7.1-9.2c0-7.8-.4-9.9-2.6-14.7-6.1-13-15.9-19.3-32.4-20.9-5.5-.5-24.2-3.6-41.5-7-34.7-6.7-44.3-7.7-50.7-5.6zm38.7 23.8c12.4 2.3 22.7 4.3 23 4.5.2.2-5.4 6.2-12.5 13.3l-12.9 12.9-4-2.2c-6.3-3.4-20.7-18.3-23.9-24.7-1.5-3-2.7-6.4-2.7-7.4 0-1.7.6-1.8 5.3-1.3 2.8.4 15.3 2.5 27.7 4.9zm-54 1.8c.8.4 2.3 2.9 3.2 5.5 5.7 15.4 24.8 34.6 42.2 42.5 5.8 2.6 6.6 3.4 7.5 6.7 2.1 7.6-3.1 16.5-10.4 17.9-8.5 1.6-9.2 1.1-35.8-25.4-13.7-13.6-25.5-25.9-26.3-27.4-2-3.9-1.8-10.7.6-14.6 3.7-6 12.9-8.5 19-5.2zm112.7 8.1c4.3 1.6 8.2 5.9 9.4 10.1 1.8 6.9.1 10-13.1 23.3-11.7 11.9-12 12.3-12 16.7 0 6 3.7 9.8 9.8 9.8 3.9 0 4.8-.6 12-7.5 8-7.6 11.3-9.5 16-9.5 4 0 10.3 4.1 12.3 8 4.3 8.1 1.5 14.4-12.2 27.5-4.6 4.4-9.2 9.1-10.1 10.5-4.5 6.5.2 15 8.2 15 3.8 0 4.8-.6 12.4-7.9 5.4-5.2 9.3-8.1 11.5-8.6 6.8-1.5 13.5 1.6 16.6 7.5 1.8 3.4 2 10.2.4 13.3-.6 1.2-6 7.2-12 13.3-10.3 10.5-10.9 11.3-10.9 15.2 0 5.6 3.1 9.1 8.7 9.9 4.1.5 4.4.4 11-5.9 10.6-10.2 15.8-11.9 23.4-7.6 5.3 3 8.3 9.2 7.4 15-.7 3.8-2.4 5.9-15.1 18.9-13.7 13.9-14.4 14.8-14.4 18.6 0 6.5 6.1 11.5 12.3 9.9 1.3-.3 4.5-2.4 7.1-4.7l4.8-4.2 16.1 16.1 16.2 16.2-46.3 46.2-46.2 46.3-16.5-16.5-16.6-16.6 9.1-9c9.6-9.6 10.5-11.6 7.6-17.3-1.7-3.1-5.4-5.1-9.8-5.1-2.4 0-4.5 1.4-10.2 7-11.7 11.3-17.6 12.8-43.7 11.1-17.5-1.1-27.5-.3-34.7 2.9-3.5 1.5-10 7.4-25.4 22.7l-20.7 20.6-46-45.8C103.7 357.3 83 336.2 83 335.6c0-.6 7.2-8.3 15.9-17l15.9-15.9 4.9 2.1c10 4.3 20.8 3.7 30.7-1.6 8.8-4.8 16-15.1 17.3-25 .7-5.2 1.5-6.2 5.5-6.2 4.9 0 13.6-4 18.7-8.6 5.9-5.3 10-13.2 11-20.6l.6-5.3 5.3-.6c7.4-1 15.3-5.1 20.6-11 4.6-5.1 8.6-13.8 8.6-18.7 0-4 1-4.8 6.5-5.6 11.1-1.4 21.1-9.3 26.3-20.4 3.6-7.8 3.7-19.2.2-27l-2.3-5.4 14.4-14.4c17.5-17.5 22-20.2 29.6-17.3zm-141.9 34.8c3.5 1.1 37.6 32.9 43.8 41 8 10.4 1.6 24.1-11.1 24.1-2 0-4.6-.5-5.8-1.1-1.2-.6-11.5-10.4-23-21.8-22.5-22.4-23.8-24.2-21.8-31.9 1.2-4.4 5.5-8.9 9.7-10.2 3.9-1.1 4.4-1.1 8.2-.1zM145 196c4.5 1.2 36.5 33 37.5 37.3 1 4 0 10.1-2.1 13-4.8 6.5-14.3 7.7-21 2.8-5.9-4.3-29.9-29.1-31.8-32.8-3.5-7-.6-15.6 6.6-19.2 4.9-2.4 5.9-2.5 10.8-1.1zm-16.4 53c3.7 1.5 16.4 13.8 18 17.7 4.9 11.5-5.4 23.4-17.4 20.1-5.1-1.4-18.6-14.9-20-20-3.1-11.5 8.2-22 19.4-17.8zm349 102.2c12.8 12.9 14.1 15 12.9 21.6-.6 3.2-7.3 10.4-56.3 59.4-30.6 30.7-57.1 56.5-58.8 57.3-3.8 1.8-8.1 1.9-11.1.2-1.3-.7-7.2-6.2-13.3-12.1-11.5-11.5-13.5-14.8-12.3-21 .4-2.4 12-14.6 55.7-58.5 30.3-30.4 56.5-56.2 58.1-57.2 1.9-1.2 4.8-1.9 8-1.9h4.9l12.2 12.2z"/><path d="M337.8 333.5c-5.7 3.2-6.6 10.8-1.9 15.6 7.1 7 19.2-.2 16.1-9.6-.6-1.8-1.9-4-2.9-4.9-2.6-2.4-8.1-2.9-11.3-1.1zM66.4 430.9c-1.2.5-3.1 2.2-4.4 3.8-2.9 3.7-2.3 9.8 1.5 13 6.2 5.4 16.5.9 16.5-7.1 0-6.6-7.8-12.1-13.6-9.7z"/></g></svg>