<?xml version="1.0" standalone="no"?>
<!DOCTYPE svg PUBLIC "-//W3C//DTD SVG 20010904//EN"
 "http://www.w3.org/TR/2001/REC-SVG-20010904/DTD/svg10.dtd">
<svg version="1.0" xmlns="http://www.w3.org/2000/svg"
 width="512.000000pt" height="512.000000pt" viewBox="0 0 512.000000 512.000000"
 preserveAspectRatio="xMidYMid meet">

<g transform="translate(0.000000,512.000000) scale(0.100000,-0.100000)"
fill="#f25f3a" stroke="none">
<path d="M2788 4944 c-424 -66 -784 -380 -902 -787 -37 -128 -50 -235 -43
-371 9 -204 67 -384 175 -552 86 -132 129 -158 186 -113 40 31 36 79 -13 143
-233 310 -253 743 -49 1077 54 89 189 232 269 286 83 57 209 114 307 140 134
36 334 38 466 5 350 -88 620 -359 708 -708 33 -132 31 -332 -5 -466 -26 -98
-83 -224 -139 -307 -53 -78 -198 -214 -287 -269 -146 -89 -331 -142 -501 -142
-158 0 -349 51 -475 127 -86 52 -142 47 -166 -14 -14 -39 7 -76 64 -111 561
-338 1287 -125 1577 463 185 375 147 822 -98 1151 -256 343 -662 513 -1074
448z"/>
<path d="M2825 4465 c-187 -41 -348 -166 -435 -339 -124 -247 -78 -537 115
-730 121 -122 256 -184 419 -193 292 -16 560 170 649 452 31 99 31 271 0 370
-100 316 -430 510 -748 440z m250 -160 c172 -45 305 -179 350 -352 65 -249
-94 -511 -350 -578 -250 -65 -513 94 -580 350 -89 342 238 669 580 580z"/>
<path d="M2880 4067 c-49 -16 -133 -102 -148 -153 -28 -94 -8 -169 63 -239 51
-52 102 -75 165 -75 124 0 240 116 240 240 0 63 -23 114 -75 165 -70 71 -152
91 -245 62z m135 -172 c16 -15 25 -36 25 -55 0 -19 -9 -40 -25 -55 -15 -16
-36 -25 -55 -25 -19 0 -40 9 -55 25 -16 15 -25 36 -25 55 0 19 9 40 25 55 15
16 36 25 55 25 19 0 40 -9 55 -25z"/>
<path d="M4253 3628 c-12 -6 -27 -24 -34 -40 -11 -27 -7 -42 44 -171 114 -289
196 -544 262 -822 38 -159 59 -195 108 -195 30 0 66 26 78 56 29 77 -299 1107
-372 1167 -24 19 -53 21 -86 5z"/>
<path d="M3464 2662 c-12 -2 -30 -12 -40 -24 -17 -18 -20 -46 -26 -253 -6
-226 -13 -299 -26 -293 -4 2 -29 15 -57 29 -68 36 -205 83 -290 100 -103 20
-339 18 -445 -5 -144 -31 -337 -108 -422 -167 -14 -11 -30 -19 -36 -19 -5 0
-26 27 -46 59 -46 76 -163 200 -246 263 -89 68 -245 143 -365 175 -91 24 -116
27 -280 27 -162 0 -190 -3 -275 -26 -237 -64 -430 -171 -607 -336 -73 -67 -82
-104 -38 -147 41 -42 74 -34 152 36 238 213 492 318 768 319 432 0 777 -268
885 -691 21 -82 44 -109 92 -109 36 0 78 40 78 73 0 14 -11 64 -26 113 l-25
88 23 18 c42 33 192 105 273 132 367 122 763 31 1008 -234 67 -72 138 -178
177 -264 31 -68 51 -86 95 -86 33 0 75 42 75 75 0 34 -76 183 -139 273 -29 39
-79 100 -111 133 l-60 61 10 77 c17 119 25 543 12 568 -13 23 -56 41 -88 35z"/>
<path d="M4645 2215 c-14 -13 -25 -32 -25 -43 0 -10 11 -94 25 -188 61 -422
95 -1029 63 -1136 -6 -22 -31 -62 -55 -88 -39 -43 -59 -55 -171 -99 -894 -351
-1932 -433 -2912 -229 -80 16 -168 32 -196 35 -46 5 -53 3 -72 -22 -48 -61
-17 -113 83 -139 177 -45 484 -95 755 -123 206 -21 761 -24 955 -5 544 54
1030 166 1455 337 173 69 236 122 294 245 28 60 31 75 34 197 5 151 -12 497
-34 718 -22 223 -63 495 -79 526 -24 46 -82 53 -120 14z"/>
<path d="M1866 827 c-34 -34 -33 -71 2 -106 25 -25 38 -29 172 -44 413 -48
804 -49 1190 -2 103 12 117 17 137 40 29 33 29 65 2 99 -25 32 -40 32 -239 9
-205 -24 -766 -23 -970 1 -278 32 -265 32 -294 3z"/>
</g>
</svg>
