<?xml version="1.0" standalone="no"?>
<!DOCTYPE svg PUBLIC "-//W3C//DTD SVG 20010904//EN"
 "http://www.w3.org/TR/2001/REC-SVG-20010904/DTD/svg10.dtd">
<svg version="1.0" xmlns="http://www.w3.org/2000/svg"
 width="512.000000pt" height="512.000000pt" viewBox="0 0 512.000000 512.000000"
 preserveAspectRatio="xMidYMid meet">

<g transform="translate(0.000000,512.000000) scale(0.100000,-0.100000)"
fill="#f25f3a" stroke="none">
<path d="M1305 4814 c-216 -33 -384 -82 -414 -120 -19 -25 -21 -40 -21 -195
l0 -169 -175 0 c-114 0 -183 -4 -200 -12 -33 -15 -55 -56 -55 -101 l0 -34
-108 -5 c-87 -3 -118 -9 -157 -28 -62 -30 -121 -89 -149 -149 l-21 -46 0
-1600 0 -1600 23 -46 c31 -63 86 -117 152 -148 l55 -26 1002 -3 1001 -2 22
-45 c29 -59 88 -118 152 -152 47 -25 63 -28 148 -28 85 0 101 3 148 28 64 34
123 93 152 153 l22 44 253 0 c140 0 265 4 278 9 71 27 90 109 38 162 l-29 29
-330 0 -330 0 -30 -25 c-23 -19 -32 -37 -37 -75 -11 -78 -65 -130 -135 -130
-70 0 -124 52 -135 130 -5 38 -14 56 -37 75 l-30 25 -1031 0 c-963 0 -1034 1
-1067 18 -19 9 -40 28 -47 42 -10 20 -13 355 -13 1572 l0 1548 29 32 c28 32
32 33 120 36 l91 4 0 -1487 c0 -1602 -2 -1527 49 -1555 27 -14 4115 -14 4142
0 51 28 49 -47 49 1555 l0 1487 91 -4 c88 -3 92 -4 120 -36 l29 -32 0 -1548
c0 -1217 -3 -1552 -13 -1572 -7 -14 -28 -33 -47 -42 -31 -16 -69 -18 -328 -18
l-293 0 -24 -24 c-49 -49 -42 -115 16 -154 34 -23 34 -23 344 -20 l310 3 55
26 c66 31 121 85 152 148 l23 46 0 1600 0 1600 -21 46 c-28 60 -87 119 -149
148 -40 19 -72 25 -157 29 l-108 5 0 34 c0 43 -25 88 -57 102 -14 7 -94 11
-198 11 l-175 0 0 169 c0 210 1 208 -138 251 -177 54 -258 65 -472 64 -164 0
-212 -4 -300 -23 -267 -57 -499 -171 -703 -346 l-78 -66 -62 54 c-205 179
-447 301 -712 357 -74 16 -145 22 -275 25 -96 2 -188 1 -205 -1z m440 -219
c206 -46 408 -142 567 -270 57 -46 113 -94 126 -107 l22 -24 -2 -1461 -3
-1461 -105 70 c-351 233 -757 321 -1160 252 -47 -8 -93 -17 -102 -20 -17 -5
-18 70 -18 1490 l0 1494 37 13 c21 7 83 20 138 30 122 23 387 19 500 -6z
m2105 10 c52 -9 119 -22 148 -31 l52 -15 0 -1495 c0 -1380 -1 -1496 -16 -1490
-29 11 -196 35 -294 42 -329 23 -733 -98 -1009 -301 -33 -25 -63 -45 -66 -45
-3 0 -5 659 -5 1464 l0 1465 79 69 c216 191 473 310 746 345 77 10 279 5 365
-8z m-2980 -1841 l0 -1366 29 -29 c37 -37 56 -37 201 0 267 67 523 63 772 -15
101 -31 303 -130 378 -184 l55 -40 -833 0 -832 0 0 1500 0 1500 115 0 115 0 0
-1366z m3610 -134 l0 -1500 -832 0 -833 0 50 36 c76 54 200 119 303 159 271
104 555 119 852 44 145 -37 164 -37 201 0 l29 29 0 1366 0 1366 115 0 115 0 0
-1500z"/>
<path d="M1312 4205 c-37 -31 -48 -75 -32 -116 20 -48 54 -59 183 -59 189 0
344 -39 506 -126 161 -88 153 -85 193 -74 44 13 68 47 68 99 0 34 -6 44 -40
73 -56 49 -220 132 -330 168 -131 43 -242 60 -391 60 -122 0 -129 -1 -157 -25z"/>
<path d="M1340 3738 c-48 -18 -76 -68 -64 -116 16 -63 40 -72 204 -76 216 -6
371 -52 563 -168 57 -34 73 -40 105 -35 48 8 82 46 82 93 0 50 -13 69 -75 109
-126 80 -275 142 -425 176 -109 25 -341 35 -390 17z"/>
<path d="M1304 3226 c-44 -44 -45 -83 -5 -128 l29 -33 164 -6 c225 -9 352 -46
535 -156 88 -53 136 -57 177 -17 20 20 26 36 26 68 0 22 -6 48 -13 57 -19 24
-95 73 -182 116 -187 94 -352 133 -560 133 l-137 0 -34 -34z"/>
<path d="M1340 2769 c-38 -16 -59 -39 -66 -74 -7 -37 15 -89 44 -103 9 -5 85
-12 167 -15 216 -8 349 -46 534 -154 81 -48 99 -54 130 -49 49 7 81 46 81 98
0 34 -6 46 -35 74 -46 43 -280 158 -375 184 -161 44 -415 65 -480 39z"/>
<path d="M1390 2290 c-71 -9 -82 -14 -104 -51 -24 -41 -14 -90 25 -123 28 -24
35 -25 157 -25 204 0 374 -46 549 -152 97 -58 135 -63 182 -23 26 21 31 33 31
67 0 24 -8 51 -18 64 -20 26 -139 96 -237 140 -174 79 -428 124 -585 103z"/>
<path d="M3416 4214 c-192 -35 -490 -171 -527 -241 -30 -56 -2 -126 58 -143
34 -9 44 -7 93 20 253 139 354 170 574 177 156 6 159 6 190 33 25 23 31 36 31
70 0 35 -6 47 -33 71 l-32 29 -138 -1 c-75 0 -173 -7 -216 -15z"/>
<path d="M3520 3744 c-193 -28 -314 -65 -464 -142 -142 -73 -176 -105 -176
-161 0 -34 6 -49 29 -72 42 -42 77 -38 174 19 185 109 333 152 544 157 79 2
152 9 163 15 22 12 50 60 50 87 0 36 -38 81 -77 92 -35 10 -186 13 -243 5z"/>
<path d="M3395 3240 c-157 -33 -324 -102 -451 -187 -77 -51 -90 -114 -37 -168
40 -39 89 -34 177 19 175 107 310 146 533 155 160 6 163 6 190 34 41 40 39 99
-5 138 l-32 29 -143 -1 c-99 0 -169 -6 -232 -19z"/>
<path d="M3455 2765 c-197 -31 -449 -133 -542 -221 -42 -40 -46 -98 -9 -141
38 -44 92 -38 186 20 165 101 322 146 535 154 169 6 188 12 206 71 15 51 -8
97 -56 118 -43 17 -207 17 -320 -1z"/>
<path d="M3565 2294 c-181 -16 -330 -57 -475 -128 -141 -70 -198 -110 -208
-148 -11 -45 -4 -73 25 -103 39 -39 88 -34 170 16 182 112 353 160 565 160
121 0 129 1 157 25 53 44 49 114 -9 155 -26 18 -144 30 -225 23z"/>
<path d="M3795 731 c-37 -16 -60 -51 -60 -93 0 -33 6 -45 33 -69 44 -40 93
-40 133 0 76 76 -7 202 -106 162z"/>
</g>
</svg>
