<?xml version="1.0" standalone="no"?>
<!DOCTYPE svg PUBLIC "-//W3C//DTD SVG 20010904//EN"
 "http://www.w3.org/TR/2001/REC-SVG-20010904/DTD/svg10.dtd">
<svg version="1.0" xmlns="http://www.w3.org/2000/svg"
 width="512.000000pt" height="512.000000pt" viewBox="0 0 512.000000 512.000000"
 preserveAspectRatio="xMidYMid meet">

<g transform="translate(0.000000,512.000000) scale(0.100000,-0.100000)"
fill="#f25f3a" stroke="none">
<path d="M1228 5065 c-124 -30 -260 -118 -339 -217 -46 -58 -105 -174 -115
-224 -5 -28 -11 -33 -46 -38 -82 -13 -162 -75 -192 -148 -9 -21 -16 -66 -16
-101 0 -53 5 -71 32 -117 39 -64 103 -108 172 -118 46 -7 48 -8 70 -64 71
-173 209 -309 378 -368 88 -31 267 -39 358 -15 203 53 370 204 436 393 18 49
20 52 54 52 80 1 183 84 208 168 44 146 -48 294 -197 318 -38 6 -42 10 -52 48
-16 59 -65 153 -113 214 -75 98 -209 183 -341 217 -73 18 -219 18 -297 0z
m273 -151 c159 -47 288 -172 334 -323 l7 -24 -118 6 c-180 8 -327 62 -443 164
-67 59 -103 62 -141 13 -57 -75 -104 -120 -146 -140 -74 -36 -81 -26 -39 57
59 118 189 223 312 252 62 15 175 12 234 -5z m-237 -354 c71 -48 165 -88 272
-116 83 -22 121 -26 239 -26 85 0 157 5 182 12 34 10 48 10 73 0 64 -27 77
-117 22 -160 -23 -19 -35 -21 -92 -15 -59 6 -67 4 -85 -15 -10 -11 -27 -53
-37 -92 -81 -320 -452 -461 -727 -277 -100 67 -164 161 -197 289 -24 95 -34
104 -115 96 -62 -7 -68 -5 -98 19 -25 22 -31 34 -31 65 0 54 35 94 81 92 130
-5 192 0 252 18 61 19 163 83 196 123 17 21 12 22 65 -13z"/>
<path d="M1272 4377 c-19 -20 -22 -35 -22 -101 0 -68 3 -80 25 -101 13 -14 36
-25 50 -25 14 0 37 11 50 25 22 21 25 33 25 98 0 60 -4 79 -21 101 -27 34 -77
36 -107 3z"/>
<path d="M1585 4375 c-22 -21 -25 -33 -25 -100 0 -67 3 -79 25 -100 30 -30 64
-32 99 -4 24 19 26 26 26 103 0 73 -3 85 -23 104 -31 29 -72 28 -102 -3z"/>
<path d="M3430 4760 c-19 -19 -20 -33 -20 -465 l0 -445 -459 0 -459 0 -64 -67
c-110 -114 -243 -263 -252 -283 -5 -10 -6 -30 -2 -43 3 -14 73 -99 156 -190
116 -127 158 -166 182 -171 17 -3 226 -6 464 -6 l434 0 0 -1450 0 -1449 -246
-3 c-245 -3 -246 -3 -265 -27 -25 -30 -24 -62 2 -95 l20 -26 678 0 678 0 21
23 c29 31 28 72 -3 102 l-24 25 -236 0 -235 0 0 408 c0 307 -3 413 -13 432
-15 30 -54 45 -91 36 -53 -13 -56 -36 -56 -476 l0 -400 -40 0 -40 0 0 2220 0
2220 40 0 40 0 2 -1680 3 -1679 22 -22 c29 -29 77 -29 106 0 l22 22 3 609 2
610 498 0 498 0 65 68 c152 156 259 282 259 304 0 13 -8 35 -18 49 -38 56
-295 327 -315 333 -12 3 -239 6 -504 6 l-483 0 0 225 0 225 498 0 498 0 65 68
c152 156 259 282 259 304 0 13 -8 35 -18 49 -38 56 -295 327 -315 333 -12 3
-239 6 -504 6 l-481 0 -4 139 c-4 189 5 181 -195 181 -140 0 -155 -2 -173 -20z
m1410 -570 l102 -110 -38 -43 c-21 -23 -68 -75 -104 -114 l-67 -73 -466 0
-467 0 0 225 0 225 469 0 468 0 103 -110z m-1430 -715 l0 -225 -429 0 -428 0
-103 110 -102 110 33 38 c18 20 64 72 103 114 l71 78 428 0 427 0 0 -225z
m1430 -495 l102 -110 -38 -43 c-21 -23 -68 -75 -104 -114 l-67 -73 -466 0
-467 0 0 225 0 225 469 0 468 0 103 -110z"/>
<path d="M356 3829 l-26 -20 0 -212 0 -212 -51 -28 c-209 -118 -314 -318 -265
-503 31 -115 119 -231 244 -319 l71 -50 1 -1201 0 -1201 23 -21 c33 -31 80
-29 106 4 21 27 21 28 21 1205 l0 1179 40 0 c30 0 47 7 65 25 53 52 16 125
-63 125 l-42 0 0 344 0 344 68 17 c75 19 252 33 252 19 0 -5 -9 -37 -20 -72
-21 -68 -16 -103 19 -121 56 -30 101 -2 126 79 10 30 35 101 57 158 l40 102
61 0 62 -1 78 -114 77 -114 0 -400 0 -401 -97 0 c-93 -1 -242 -11 -362 -26
l-54 -7 7 114 c3 63 13 157 22 209 28 177 29 212 5 234 -31 28 -79 25 -106 -6
-16 -19 -26 -53 -38 -129 -37 -235 -41 -306 -40 -623 3 -674 50 -1409 119
-1843 13 -86 24 -160 24 -165 0 -4 -18 -8 -40 -8 -77 0 -123 -46 -101 -103 17
-44 36 -48 257 -45 l207 3 17 25 c15 20 21 71 35 264 27 402 79 818 150 1221
43 243 56 297 72 303 19 6 27 -24 67 -243 75 -411 139 -928 166 -1345 9 -139
15 -180 29 -200 l18 -25 210 -3 c193 -2 212 -1 233 16 34 27 32 78 -4 109 -20
17 -39 23 -73 23 l-46 0 7 43 c87 540 135 1242 138 1979 0 245 -3 355 -16 453
-18 145 -56 344 -85 450 -11 38 -18 71 -17 73 5 4 68 -76 113 -143 90 -133
171 -331 210 -515 14 -64 18 -129 18 -265 0 -183 -6 -231 -47 -372 -17 -61
-19 -77 -8 -102 16 -40 61 -56 101 -36 32 17 55 79 86 233 25 125 25 420 -1
557 -68 368 -281 732 -509 873 -52 32 -62 43 -91 108 -19 40 -43 77 -54 83
-26 14 -257 15 -282 1 -10 -5 -49 -55 -86 -110 -37 -55 -70 -100 -74 -100 -3
0 -37 45 -75 101 -38 55 -77 104 -86 110 -24 12 -256 12 -280 -1 -10 -6 -32
-37 -49 -69 l-29 -58 -138 -6 c-76 -3 -162 -12 -190 -20 l-53 -14 0 179 c0
177 0 179 -25 203 -30 30 -64 32 -99 4z m1424 -466 c103 -267 190 -678 190
-901 l0 -54 -47 6 c-103 13 -282 26 -370 26 l-93 0 0 401 0 401 78 114 77 113
62 1 62 0 41 -107z m-1450 -425 l0 -272 -59 58 c-152 151 -159 280 -20 419 37
37 70 67 73 67 3 0 6 -122 6 -272z m1534 -669 l109 -13 -6 -315 c-13 -617 -57
-1216 -118 -1591 -26 -160 -26 -160 -54 -160 -28 0 -25 -22 -55 340 -35 421
-103 906 -181 1288 -38 190 -35 187 -179 187 -97 0 -112 -2 -130 -20 -52 -53
-190 -926 -235 -1495 -26 -317 -23 -300 -50 -300 -27 0 -29 4 -49 125 -68 412
-126 1219 -126 1763 l0 180 133 12 c72 6 141 13 152 15 51 9 691 -4 789 -16z"/>
</g>
</svg>
