<?xml version="1.0" standalone="no"?>
<!DOCTYPE svg PUBLIC "-//W3C//DTD SVG 20010904//EN"
 "http://www.w3.org/TR/2001/REC-SVG-20010904/DTD/svg10.dtd">
<svg version="1.0" xmlns="http://www.w3.org/2000/svg"
 width="512.000000pt" height="512.000000pt" viewBox="0 0 512.000000 512.000000"
 preserveAspectRatio="xMidYMid meet">

<g transform="translate(0.000000,512.000000) scale(0.100000,-0.100000)"
fill="#f25f3a" stroke="none">
<path d="M2469 5070 c-48 -25 -96 -81 -108 -127 -6 -21 -11 -66 -11 -100 l0
-63 -93 0 c-112 0 -169 -23 -199 -80 l-18 -35 -603 -5 -602 -5 -57 -28 c-32
-16 -71 -45 -88 -65 -64 -77 -60 70 -58 -2242 l3 -2105 22 -41 c27 -50 75 -97
122 -121 34 -17 124 -18 1766 -21 1920 -2 1786 -7 1859 64 20 19 46 54 59 77
l22 42 3 2105 c2 2312 6 2165 -58 2242 -17 20 -56 49 -88 65 l-57 28 -602 5
-603 5 -18 35 c-31 57 -88 80 -199 80 l-93 0 0 63 c0 82 -14 130 -52 173 -64
72 -170 96 -249 54z m127 -128 c26 -17 34 -56 34 -156 0 -147 -1 -146 175
-146 l135 0 0 -175 0 -175 -380 0 -380 0 0 175 0 175 135 0 c176 0 175 -1 175
146 0 131 14 164 70 164 14 0 30 -4 36 -8z m-558 -484 l3 -58 -560 0 -560 0
-20 -26 -21 -27 0 -2009 0 -2009 25 -24 24 -25 1631 0 1631 0 24 25 25 24 0
2009 0 2009 -21 27 -20 26 -560 0 -560 0 3 58 3 57 590 0 c643 0 619 2 655
-58 20 -31 20 -70 20 -2110 0 -1773 -2 -2083 -14 -2112 -30 -70 110 -65 -1776
-65 -1886 0 -1746 -5 -1776 65 -21 52 -21 4172 0 4214 19 36 39 52 79 61 17 5
289 7 602 7 l570 -2 3 -57z m23 -230 c9 -19 33 -42 59 -55 43 -23 45 -23 440
-23 395 0 397 0 440 23 26 13 50 36 59 55 l16 32 513 0 512 0 0 -1920 0 -1920
-1540 0 -1540 0 0 1920 0 1920 513 0 512 0 16 -32z"/>
<path d="M1740 3892 c-44 -22 -80 -75 -80 -117 l0 -33 -89 -4 c-101 -3 -133
-19 -163 -79 -16 -30 -18 -71 -18 -384 0 -313 2 -354 18 -384 30 -59 61 -74
162 -79 l90 -4 0 -32 c0 -38 30 -89 67 -113 23 -16 50 -18 193 -18 157 0 167
1 198 23 51 37 57 55 62 212 l5 145 375 0 375 0 5 -145 c5 -157 11 -175 62
-212 31 -22 41 -23 198 -23 143 0 170 2 193 18 37 24 67 75 67 113 l0 32 90 4
c101 5 132 20 162 79 16 30 18 71 18 384 0 313 -2 354 -18 384 -30 60 -62 76
-163 79 l-89 4 0 33 c0 42 -36 95 -80 117 -29 15 -62 18 -180 18 -164 0 -198
-10 -237 -69 -21 -31 -23 -45 -23 -172 l0 -139 -380 0 -380 0 0 139 c0 127 -2
141 -23 172 -39 59 -73 69 -237 69 -118 0 -151 -3 -180 -18z m300 -617 l0
-495 -120 0 -120 0 0 495 0 495 120 0 120 0 0 -495z m1280 0 l0 -495 -120 0
-120 0 0 495 0 495 120 0 120 0 0 -495z m-1660 0 l0 -325 -65 0 -65 0 0 325 0
325 65 0 65 0 0 -325z m1930 0 l0 -325 -65 0 -65 0 0 325 0 325 65 0 65 0 0
-325z m-650 5 l0 -110 -380 0 -380 0 0 110 0 110 380 0 380 0 0 -110z"/>
<path d="M1633 2138 l-163 -162 -69 67 c-76 74 -98 81 -136 42 -46 -45 -30
-79 89 -193 124 -119 107 -125 345 112 173 173 194 197 194 227 0 21 -7 38
-22 51 -48 38 -64 28 -238 -144z"/>
<path d="M2076 2259 c-32 -25 -35 -70 -6 -99 20 -20 33 -20 880 -20 l859 0 21
22 c27 29 25 64 -5 93 l-24 25 -849 0 c-844 0 -849 0 -876 -21z"/>
<path d="M2076 1909 c-32 -25 -35 -70 -6 -99 20 -20 33 -20 878 -20 l859 0 21
23 c29 30 28 62 -3 92 l-24 25 -849 0 c-844 0 -849 0 -876 -21z"/>
<path d="M1633 1218 l-162 -162 -70 67 c-76 74 -98 81 -136 42 -42 -41 -33
-60 77 -171 84 -86 107 -104 132 -104 25 0 57 27 214 183 101 100 190 194 198
209 24 45 -9 98 -60 98 -27 0 -53 -22 -193 -162z"/>
<path d="M2070 1350 c-29 -29 -26 -74 6 -99 27 -21 32 -21 876 -21 l849 0 24
25 c31 30 32 65 2 93 l-23 22 -857 0 c-844 0 -857 0 -877 -20z"/>
<path d="M2070 1000 c-29 -29 -26 -74 6 -99 27 -21 32 -21 876 -21 l849 0 24
25 c30 29 32 68 5 95 -20 20 -33 20 -880 20 -847 0 -860 0 -880 -20z"/>
</g>
</svg>
