<?xml version="1.0" standalone="no"?>
<!DOCTYPE svg PUBLIC "-//W3C//DTD SVG 20010904//EN"
 "http://www.w3.org/TR/2001/REC-SVG-20010904/DTD/svg10.dtd">
<svg version="1.0" xmlns="http://www.w3.org/2000/svg"
 width="512.000000pt" height="512.000000pt" viewBox="0 0 512.000000 512.000000"
 preserveAspectRatio="xMidYMid meet">

<g transform="translate(0.000000,512.000000) scale(0.100000,-0.100000)"
fill="#f25f3a" stroke="none">
<path d="M827 5069 c-85 -20 -172 -91 -215 -174 -22 -42 -27 -67 -30 -151 l-4
-102 -102 -4 c-143 -6 -208 -44 -255 -148 -41 -90 -22 -180 54 -255 60 -61
101 -75 219 -75 l86 0 0 -220 0 -220 -86 0 c-117 0 -158 -14 -221 -75 -59 -58
-78 -110 -70 -191 6 -63 26 -102 73 -148 49 -48 109 -66 216 -66 l88 0 0 -220
0 -220 -88 0 c-108 0 -165 -18 -216 -67 -58 -56 -71 -88 -71 -173 0 -85 13
-117 71 -173 51 -49 108 -67 216 -67 l88 0 0 -220 0 -220 -88 0 c-107 0 -167
-18 -216 -66 -47 -46 -67 -85 -73 -148 -8 -81 11 -133 70 -191 63 -61 104 -75
221 -75 l86 0 0 -220 0 -220 -88 0 c-118 0 -170 -18 -225 -80 -68 -76 -85
-165 -46 -250 47 -104 112 -142 255 -148 l102 -4 4 -102 c3 -84 8 -109 30
-151 32 -61 103 -129 166 -158 l47 -22 1910 0 1910 0 63 29 c89 41 165 125
192 212 20 66 20 82 20 2274 0 2192 0 2208 -20 2274 -27 87 -103 171 -192 212
l-63 29 -1890 2 c-1087 0 -1906 -3 -1928 -8z m463 -2509 l0 -2380 -204 0
c-129 0 -215 4 -237 12 -91 31 -129 94 -129 210 l0 76 98 4 c85 3 104 7 145
31 60 36 103 93 118 161 23 105 -34 215 -136 262 -40 19 -67 24 -137 24 l-88
0 0 219 0 219 99 4 c88 3 104 7 147 34 27 16 62 49 79 73 28 40 30 49 30 131
0 82 -2 91 -30 131 -17 24 -52 57 -79 73 -43 27 -59 31 -147 34 l-99 4 0 218
0 218 99 4 c88 3 104 7 147 34 27 16 62 49 79 73 28 40 30 49 30 131 0 82 -2
91 -30 131 -17 24 -52 57 -79 73 -43 27 -59 31 -147 34 l-99 4 0 218 0 218 99
4 c88 3 104 7 147 34 27 16 62 49 79 73 28 40 30 49 30 131 0 82 -2 91 -30
131 -17 24 -52 57 -79 73 -43 27 -59 31 -147 34 l-99 4 0 219 0 219 88 0 c70
0 97 5 137 24 102 47 159 157 136 262 -15 68 -58 125 -118 161 -41 24 -60 28
-145 31 l-98 4 0 76 c0 116 38 179 125 210 17 6 119 11 238 11 l207 1 0 -2380z
m3385 2345 c36 -22 57 -45 77 -84 l28 -53 0 -2208 0 -2208 -28 -53 c-20 -39
-41 -62 -77 -84 l-48 -30 -1599 -3 -1598 -2 0 2380 0 2380 1598 -2 1599 -3 48
-30z m-3791 -415 c34 -12 60 -55 60 -98 0 -26 -8 -41 -32 -63 l-32 -29 -230 0
c-248 0 -271 4 -296 51 -23 45 -17 78 20 115 l34 34 225 0 c124 0 237 -4 251
-10z m25 -934 c46 -42 43 -117 -6 -156 -24 -19 -41 -20 -254 -20 -247 0 -270
4 -295 51 -23 46 -17 78 21 116 l34 34 239 -3 c220 -3 242 -5 261 -22z m-19
-909 c14 -7 32 -27 42 -45 19 -39 11 -84 -22 -117 -19 -19 -35 -20 -261 -23
l-240 -3 -34 34 c-47 47 -47 87 -1 133 l34 34 229 0 c162 0 235 -4 253 -13z
m9 -923 c13 -9 30 -32 38 -51 12 -31 12 -38 -4 -71 -29 -59 -42 -62 -297 -62
l-228 0 -34 34 c-37 37 -43 73 -20 115 26 47 45 50 291 51 197 0 234 -2 254
-16z m13 -933 c24 -22 32 -37 32 -63 0 -43 -26 -86 -60 -98 -14 -6 -127 -10
-251 -10 l-225 0 -34 34 c-37 37 -43 73 -20 115 26 47 45 50 293 51 l233 0 32
-29z"/>
<path d="M2173 4001 c-47 -22 -70 -58 -79 -125 l-6 -44 -102 -4 c-87 -3 -106
-7 -135 -27 -60 -43 -61 -49 -61 -492 0 -445 1 -449 65 -489 27 -17 50 -20
133 -20 l100 0 7 -57 c6 -48 13 -63 44 -94 45 -46 90 -53 288 -47 122 3 142 6
174 26 60 36 69 74 69 277 l0 175 439 0 440 0 3 -201 3 -201 36 -33 c46 -41
94 -49 286 -43 115 3 144 7 172 23 43 25 71 78 71 132 l0 43 103 0 c84 0 108
4 134 20 64 39 64 35 61 504 l-3 425 -29 30 c-38 39 -80 51 -182 51 l-81 0 -5
51 c-6 59 -31 97 -79 121 -28 15 -62 18 -203 18 -149 0 -175 -2 -211 -20 -70
-34 -75 -51 -75 -269 l0 -191 -439 0 -440 0 -3 193 c-3 184 -4 193 -27 226
-39 54 -69 61 -258 61 -143 0 -174 -3 -210 -19z m355 -688 l-3 -568 -145 0
-145 0 -3 555 c-1 305 0 561 3 568 3 9 43 12 150 12 l145 0 -2 -567z m1452 -3
l0 -570 -145 0 -145 0 0 570 0 570 145 0 145 0 0 -570z m-1890 5 l0 -375 -80
0 -80 0 0 375 0 375 80 0 80 0 0 -375z m2190 0 l0 -375 -80 0 -80 0 0 375 0
375 80 0 80 0 0 -375z m-735 -5 l0 -85 -437 -3 -438 -2 0 90 0 90 438 -2 437
-3 0 -85z"/>
<path d="M2180 2000 c-29 -29 -26 -74 6 -99 27 -21 31 -21 936 -21 l909 0 24
25 c30 30 31 54 4 89 l-20 26 -920 0 c-906 0 -919 0 -939 -20z"/>
<path d="M2186 1639 c-33 -26 -34 -68 -3 -97 l23 -22 916 0 917 0 20 26 c27
35 26 59 -4 89 l-24 25 -909 0 c-905 0 -909 0 -936 -21z"/>
<path d="M2203 1290 c-44 -18 -56 -77 -23 -110 20 -20 33 -20 939 -20 822 0
921 2 935 16 38 37 27 96 -20 114 -32 13 -1801 12 -1831 0z"/>
<path d="M2180 910 c-27 -27 -25 -66 5 -96 l24 -24 917 2 916 3 19 24 c24 30
24 52 -2 85 l-20 26 -920 0 c-906 0 -919 0 -939 -20z"/>
</g>
</svg>
