<?xml version="1.0" standalone="no"?>
<!DOCTYPE svg PUBLIC "-//W3C//DTD SVG 20010904//EN"
 "http://www.w3.org/TR/2001/REC-SVG-20010904/DTD/svg10.dtd">
<svg version="1.0" xmlns="http://www.w3.org/2000/svg"
 width="512.000000pt" height="512.000000pt" viewBox="0 0 512.000000 512.000000"
 preserveAspectRatio="xMidYMid meet">

<g transform="translate(0.000000,512.000000) scale(0.100000,-0.100000)"
fill="#f25f3a" stroke="none">
<path d="M4195 5108 c-633 -46 -1227 -237 -1699 -545 -271 -177 -590 -459
-836 -740 l-55 -62 -390 -31 c-395 -31 -440 -37 -508 -72 -82 -41 -129 -101
-394 -502 -146 -220 -274 -418 -286 -440 -16 -31 -22 -59 -22 -116 0 -65 4
-82 29 -128 35 -62 87 -107 148 -127 24 -8 178 -35 343 -60 165 -25 307 -48
316 -51 13 -4 16 -20 15 -92 -1 -107 19 -170 79 -249 23 -32 249 -263 501
-514 492 -489 500 -495 624 -519 30 -6 81 -8 112 -5 54 7 57 6 63 -17 3 -12
25 -156 50 -318 25 -162 52 -314 60 -338 20 -61 65 -113 127 -148 46 -25 63
-29 128 -29 57 0 85 6 116 22 23 12 221 141 440 286 402 265 460 311 502 394
35 69 42 113 72 508 l30 390 63 55 c34 30 126 117 205 195 515 504 810 1010
972 1666 74 300 108 560 117 904 9 355 -10 450 -111 562 -59 65 -145 109 -241
123 -83 11 -402 11 -570 -2z m572 -308 c45 -30 48 -48 47 -319 -1 -363 -37
-641 -125 -966 -149 -553 -404 -981 -849 -1425 -273 -274 -556 -485 -878 -656
l-73 -38 -746 746 -746 746 38 74 c160 308 381 605 655 878 160 160 269 255
434 378 425 314 950 510 1551 576 195 22 223 23 460 22 166 -1 215 -4 232 -16z
m-3456 -1452 c-155 -247 -280 -514 -357 -760 -14 -46 -22 -58 -38 -58 -27 1
-587 87 -591 92 -7 7 485 743 508 761 20 15 64 22 243 37 120 9 236 18 256 19
l37 1 -58 -92z m623 -1417 l658 -659 -93 -31 c-126 -41 -303 -83 -361 -85
l-48 -1 -467 468 -468 467 2 53 c2 58 60 300 94 390 12 31 22 57 23 57 0 0
297 -296 660 -659z m1487 -823 c-11 -136 -24 -256 -31 -267 -10 -20 -761 -524
-768 -516 -5 5 -92 564 -92 590 0 17 20 27 124 62 223 75 478 198 688 330 51
33 94 56 96 53 1 -4 -6 -117 -17 -252z"/>
<path d="M3410 4250 c-369 -48 -650 -368 -650 -739 1 -222 81 -407 243 -556
86 -80 231 -155 351 -181 104 -22 271 -15 371 16 246 77 435 273 506 526 28
99 31 264 6 366 -73 300 -323 524 -631 567 -84 12 -113 12 -196 1z m176 -301
c235 -43 406 -281 366 -509 -42 -236 -239 -392 -477 -378 -224 14 -401 193
-413 415 -12 230 130 420 352 468 77 17 99 17 172 4z"/>
<path d="M590 1679 c-14 -5 -148 -132 -298 -282 -296 -296 -304 -306 -282
-386 13 -48 66 -97 114 -106 76 -15 85 -8 370 274 148 146 274 280 282 298 53
124 -63 250 -186 202z"/>
<path d="M1025 1224 c-43 -22 -983 -962 -1006 -1006 -10 -21 -19 -51 -19 -68
0 -50 35 -107 80 -130 49 -25 90 -25 138 -1 20 11 256 239 524 508 525 526
510 509 494 597 -17 92 -127 144 -211 100z"/>
<path d="M1465 771 c-16 -10 -148 -137 -292 -282 -221 -224 -262 -270 -268
-301 -21 -111 77 -207 182 -179 54 15 587 549 598 599 14 69 -16 136 -75 167
-40 21 -109 19 -145 -4z"/>
</g>
</svg>
